inDegrees=yes
name=ik_lifting_orientations
DataType=double
version=3
OpenSimVersion=4.5-2024-01-10-34fd6af
endheader
time	pelvis_tilt	pelvis_list	pelvis_rotation	pelvis_tx	pelvis_ty	pelvis_tz	hip_flexion_r	hip_adduction_r	hip_rotation_r	knee_angle_r	knee_angle_r_beta	ankle_angle_r	subtalar_angle_r	mtp_angle_r	hip_flexion_l	hip_adduction_l	hip_rotation_l	knee_angle_l	knee_angle_l_beta	ankle_angle_l	subtalar_angle_l	mtp_angle_l	lumbar_extension	lumbar_bending	lumbar_rotation	arm_flex_r	arm_add_r	arm_rot_r	elbow_flex_r	pro_sup_r	wrist_flex_r	wrist_dev_r	arm_flex_l	arm_add_l	arm_rot_l	elbow_flex_l	pro_sup_l	wrist_flex_l	wrist_dev_l
0.55	7.641297897627752	23.34202957030913	-64.19853526237756	0	0.9399999998679526	0	16.47957246649398	-7.401243240449141	0	24.35909579797676	0.4251464244834099	-4.213387599340965	0	0	16.47957246649398	-7.401243240449141	0	24.35909579797676	0.4251464244834099	-4.213387599340965	0	0	-8.999069794366788	26.88988065749943	-14.45329667382482	45.57375680514878	-27.86069424018069	8.50256493596267	0.04191561226790374	55.81380384584318	0	0	0	-2.521174519756594	0	34.34188106232001	55.81380384584318	0	0
0.5600000000000001	7.831672754977045	23.15067598547202	-65.02307507224569	0	0.9399999998679526	0	16.48891187594772	-7.403799719042746	0	24.37117214572607	0.4253571965132513	-4.214393138676342	0	0	16.48891187594772	-7.403799719042746	0	24.37117214572607	0.4253571965132513	-4.214393138676342	0	0	-8.864619578652926	26.51829202888075	-14.91319477209178	45.50608742826017	-27.20834887657123	9.307339681791703	0.04157340505247175	55.79619287267088	0	0	0	-2.52299369467727	0	34.35938267948404	55.79619287267088	0	0
0.57	8.017133554625106	22.96846597344738	-65.82025039103446	0	0.9399999998679526	0	16.5053745536714	-7.408251195144654	0	24.39255613435976	0.4257304175221182	-4.216138329875449	0	0	16.5053745536714	-7.408251195144654	0	24.39255613435976	0.4257304175221182	-4.216138329875449	0	0	-9.770087428754966	26.61491549403048	-13.82554105553251	46.20357014128301	-27.41578284297794	9.4987980551831	0.04131923924841265	55.76527534708264	0	0	0	-2.526241925061618	0	34.39011110788422	55.76527534708264	0	0
0.58	8.205026093914698	22.76726961700945	-66.62739115937961	0	0.9399999998679526	0	16.51487017778484	-7.410838098539489	0	24.40484253819501	0.4259448557222729	-4.217154213169242	0	0	16.51487017778484	-7.410838098539489	0	24.40484253819501	0.4259448557222729	-4.217154213169242	0	0	-9.765341253699292	26.1038250586663	-13.88432791291129	46.01956825134611	-26.81597845485392	10.15560848057903	0.04169839576175149	55.74740136636996	0	0	0	-2.528099499464934	0	34.40787481374501	55.74740136636996	0	0
0.59	8.408847124549105	22.61034082529494	-67.46273898599135	0	0.9399999998679526	0	16.52401145529386	-7.413323306570413	0	24.41667501306776	0.426151371367462	-4.218129509763017	0	0	16.52401145529386	-7.413323306570413	0	24.41667501306776	0.426151371367462	-4.218129509763017	0	0	-9.731451001234273	25.56505724715225	-13.90395922483084	45.76865139873096	-26.21769373261331	10.79160299209995	0.04280505919690495	55.73020727665939	0	0	0	-2.529891221386732	0	34.4249631163088	55.73020727665939	0	0
0.6	8.629066738909634	22.42781163600167	-68.28007258807997	0	0.9399999998679526	0	16.53466188407084	-7.416213694930682	0	24.43046399617605	0.4263920345232035	-4.219263141155278	0	0	16.53466188407084	-7.416213694930682	0	24.43046399617605	0.4263920345232035	-4.219263141155278	0	0	-9.714655236473234	24.99889845944218	-13.94390227817134	45.44411992025179	-25.58490484483763	11.51747181360272	0.04498115400337804	55.71018778400282	0	0	0	-2.531982080864994	0	34.4448597368721	55.71018778400282	0	0
0.61	8.794145847386131	22.11163752883188	-69.24820920036214	0	0.9399999998679526	0	16.54830955959545	-7.419908887103138	0	24.44813978457194	0.4267005352285975	-4.220711319403105	0	0	16.54830955959545	-7.419908887103138	0	24.44813978457194	0.4267005352285975	-4.220711319403105	0	0	-10.47007455538759	24.87667608143882	-13.06339567049229	45.79895975818827	-25.5581255056953	12.04646043495458	0.0462575353198847	55.68455646962947	0	0	0	-2.534667157690857	0	34.47033423497603	55.68455646962947	0	0
0.62	9.098819810085457	21.57411762660786	-71.00737925658163	0	0.9399999998679526	0	16.56002114385688	-7.423047494913285	0	24.4633646516176	0.4269662592867227	-4.221937943791678	0	0	16.56002114385688	-7.423047494913285	0	24.4633646516176	0.4269662592867227	-4.221937943791678	0	0	-12.0828658944675	24.48888859817778	-10.75449799326814	46.1603695752843	-25.93505834324951	12.00499876133977	0.04565612719914387	55.66263430968208	0	0	0	-2.536995633482994	0	34.49212396257175	55.66263430968208	0	0
0.63	9.4069055847256	20.98514984806264	-72.75975114175885	0	0.9399999998679526	0	16.57276348623763	-7.42650235480631	0	24.47983594680808	0.4272537376198645	-4.2232918598186	0	0	16.57276348623763	-7.42650235480631	0	24.47983594680808	0.4272537376198645	-4.2232918598186	0	0	-12.96992616779317	23.7963639478071	-9.641042313406098	45.92112768296091	-25.47152879599079	12.58624262700296	0.04590385125979998	55.63869792342539	0	0	0	-2.5394965938529	0	34.51591375797435	55.63869792342539	0	0
0.64	9.799857103595254	20.25666443844813	-75.10045672396193	0	0.9399999998679526	0	16.58384562353174	-7.429508309517444	0	24.49414938828244	0.4275035543008835	-4.224469750413713	0	0	16.58384562353174	-7.429508309517444	0	24.49414938828244	0.4275035543008835	-4.224469750413713	0	0	-13.76716600528037	22.70686394465503	-8.467434213310932	45.2410595656329	-24.81429533253503	13.32347915287249	0.04717838291286004	55.61787983003092	0	0	0	-2.541669844777915	0	34.53660433909724	55.61787983003092	0	0
0.65	10.21084904937002	19.59177196690879	-77.4332731759922	0	0.9399999998679526	0	16.60077781050874	-7.43409499834482	0	24.51601416314707	0.4278851666124787	-4.226266063022249	0	0	16.60077781050874	-7.43409499834482	0	24.51601416314707	0.4278851666124787	-4.226266063022249	0	0	-14.9200117223842	21.71405876194132	-6.667304386019308	44.73347610433868	-24.52772760836495	13.82076163750695	0.04799614896005167	55.58608991920173	0	0	0	-2.544993534592256	0	34.56819992600772	55.58608991920173	0	0
0.66	10.60041606841635	18.74257160617663	-80.08839931172847	0	0.9399999998679526	0	16.63229278238498	-7.442602317133286	0	24.55668128954469	0.4285949418654418	-4.229591631652602	0	0	16.63229278238498	-7.442602317133286	0	24.55668128954469	0.4285949418654418	-4.229591631652602	0	0	-16.70300459947394	20.86484952731123	-4.254191679594168	44.61394580900138	-24.48316818227736	14.36848400546507	0.04960342747716709	55.52698295551855	0	0	0	-2.551183176238301	0	34.62694710738029	55.52698295551855	0	0
